<svg version="1.1" viewBox="0.0 0.0 48.0 48.0" fill="none" stroke="none" stroke-linecap="square" stroke-miterlimit="10" xmlns:xlink="http://www.w3.org/1999/xlink" xmlns="http://www.w3.org/2000/svg"><clipPath id="p.0"><path d="m0 0l48.0 0l0 48.0l-48.0 0l0 -48.0z" clip-rule="nonzero"/></clipPath><g clip-path="url(#p.0)"><path fill="#000000" fill-opacity="0.0" d="m0 0l48.0 0l0 48.0l-48.0 0z" fill-rule="evenodd"/><path fill="#cfe2f3" d="m-19.548557 12.506561l0 0c0 -5.0270953 4.075267 -9.102362 9.102363 -9.102362l0 0c2.4140968 0 4.7293186 0.95899606 6.4363422 2.6660202c1.7070243 1.7070241 2.6660204 4.022246 2.6660204 6.436342l0 0c0 5.027096 -4.0752664 9.102362 -9.102363 9.102362l0 0c-5.027096 0 -9.102363 -4.075266 -9.102363 -9.102362z" fill-rule="evenodd"/><path stroke="#000000" stroke-width="1.0" stroke-linejoin="round" stroke-linecap="butt" d="m-19.548557 12.506561l0 0c0 -5.0270953 4.075267 -9.102362 9.102363 -9.102362l0 0c2.4140968 0 4.7293186 0.95899606 6.4363422 2.6660202c1.7070243 1.7070241 2.6660204 4.022246 2.6660204 6.436342l0 0c0 5.027096 -4.0752664 9.102362 -9.102363 9.102362l0 0c-5.027096 0 -9.102363 -4.075266 -9.102363 -9.102362z" fill-rule="evenodd"/><path fill="#000000" d="m11.932125 25.983826l0 0c0 -6.6660194 5.4029293 -12.069896 12.06778 -12.069896l0 0c3.200573 0 6.2700615 1.2716455 8.533207 3.5351896c2.2631493 2.263546 3.5345726 5.3335705 3.5345726 8.534706l0 0c0 6.6660194 -5.4029293 12.069897 -12.06778 12.069897l0 0c-6.66485 0 -12.06778 -5.4038773 -12.06778 -12.069897z" fill-rule="evenodd"/><path fill="#000000" d="m27.591469 45.97459l-7.1831303 0l0 0c-0.47628403 0 -0.9330635 -0.18920135 -1.2698479 -0.5259857c-0.33678436 -0.33678818 -0.5259876 -0.79356384 -0.5259876 -1.2698517l0 -8.980854c0 -4.9591064E-5 4.005432E-5 -9.1552734E-5 8.9645386E-5 -9.1552734E-5l10.7747135 9.1552734E-5l0 0c4.9591064E-5 0 8.9645386E-5 3.8146973E-5 8.9645386E-5 8.773804E-5l-8.9645386E-5 8.980766l0 0c0 0.99181366 -0.80402374 1.7958374 -1.7958374 1.7958374z" fill-rule="evenodd"/><path fill="#000000" d="m9.408305 32.07061l-7.7039843 -0.053886414l0 -4.2029095l7.7039843 0.053884506z" fill-rule="evenodd"/><path fill="#000000" d="m38.59287 32.02834l7.703987 -0.0538826l-0.05387497 -4.149027l-7.7039833 0.0538826z" fill-rule="evenodd"/><path fill="#000000" d="m6.2680984 11.214019l6.3032603 4.3106775l-2.3165827 3.5024261l-6.3032603 -4.3106785z" fill-rule="evenodd"/><path fill="#000000" d="m26.047287 2.0240045l-0.10774803 7.705335l-3.9866772 0l0.10774803 -7.705335z" fill-rule="evenodd"/><path fill="#000000" d="m41.19642 11.214019l-6.303261 4.3106775l2.3165817 3.5024261l6.303261 -4.3106785z" fill-rule="evenodd"/><path fill="#000000" fill-opacity="0.0" d="m19.131838 37.560543c-0.24803162 -2.73666 -1.812336 -13.93351 -1.4881897 -16.419949c0.32414818 -2.4864388 3.0568695 1.1776028 3.4330711 1.5013123c0.37620354 0.3237095 -1.2209091 0.91207314 -1.1758518 0.44094467c0.04505539 -0.47112846 0.7839012 -3.164917 1.4461937 -3.2677174c0.6622925 -0.10279846 2.3171482 2.1504822 2.5275593 2.650919c0.21041107 0.5004387 -1.4006996 0.82239723 -1.2650928 0.35170746c0.13560867 -0.47069168 1.3862648 -3.131672 2.078741 -3.1758537c0.6924763 -0.044181824 1.9409447 2.4107609 2.0761147 2.9107609c0.13517189 0.5 -1.3705158 0.5743656 -1.265091 0.08923912c0.10542297 -0.4851265 1.205162 -2.9706917 1.8976364 -3.0c0.6924763 -0.02930832 2.0161858 0.044181824 2.2572193 2.8241463c0.24103165 2.7799664 -0.73578453 11.72266 -0.8110237 13.855644c-0.07524109 2.1329842 0.2996502 -0.88145447 0.3595791 -1.0577431" fill-rule="evenodd"/><path stroke="#ffff00" stroke-width="1.0" stroke-linejoin="round" stroke-linecap="butt" d="m19.131838 37.560543c-0.24803162 -2.73666 -1.812336 -13.93351 -1.4881897 -16.419949c0.32414818 -2.4864388 3.0568695 1.1776028 3.4330711 1.5013123c0.37620354 0.3237095 -1.2209091 0.91207314 -1.1758518 0.44094467c0.04505539 -0.47112846 0.7839012 -3.164917 1.4461937 -3.2677174c0.6622925 -0.10279846 2.3171482 2.1504822 2.5275593 2.650919c0.21041107 0.5004387 -1.4006996 0.82239723 -1.2650928 0.35170746c0.13560867 -0.47069168 1.3862648 -3.131672 2.078741 -3.1758537c0.6924763 -0.044181824 1.9409447 2.4107609 2.0761147 2.9107609c0.13517189 0.5 -1.3705158 0.5743656 -1.265091 0.08923912c0.10542297 -0.4851265 1.205162 -2.9706917 1.8976364 -3.0c0.6924763 -0.02930832 2.0161858 0.044181824 2.2572193 2.8241463c0.24103165 2.7799664 -0.73578453 11.72266 -0.8110237 13.855644c-0.07524109 2.1329842 0.2996502 -0.88145447 0.3595791 -1.0577431" fill-rule="evenodd"/><path fill="#000000" fill-opacity="0.0" d="m-15.406824 5.9947505c2.0238552 -0.70449066 4.058407 -1.3867292 6.125984 -1.9501309" fill-rule="evenodd"/><path stroke="#000000" stroke-width="1.0" stroke-linejoin="round" stroke-linecap="butt" d="m-15.406824 5.9947505c2.0238552 -0.70449066 4.058407 -1.3867292 6.125984 -1.9501309" fill-rule="evenodd"/><path fill="#000000" fill-opacity="0.0" d="m-17.729658 7.850394c3.627285 -0.9040761 7.218405 -1.9554906 10.863516 -2.7847772" fill-rule="evenodd"/><path stroke="#000000" stroke-width="1.0" stroke-linejoin="round" stroke-linecap="butt" d="m-17.729658 7.850394c3.627285 -0.9040761 7.218405 -1.9554906 10.863516 -2.7847772" fill-rule="evenodd"/><path fill="#000000" fill-opacity="0.0" d="m-18.47244 9.522309c4.4460487 -0.7670078 8.702957 -2.3901548 13.091864 -3.4356952" fill-rule="evenodd"/><path stroke="#000000" stroke-width="1.0" stroke-linejoin="round" stroke-linecap="butt" d="m-18.47244 9.522309c4.4460487 -0.7670078 8.702957 -2.3901548 13.091864 -3.4356952" fill-rule="evenodd"/><path fill="#000000" fill-opacity="0.0" d="m-18.286089 10.729659c4.5934057 -0.49132347 9.051642 -1.8557129 13.556431 -2.8792653" fill-rule="evenodd"/><path stroke="#000000" stroke-width="1.0" stroke-linejoin="round" stroke-linecap="butt" d="m-18.286089 10.729659c4.5934057 -0.49132347 9.051642 -1.8557129 13.556431 -2.8792653" fill-rule="evenodd"/><path fill="#000000" fill-opacity="0.0" d="m-18.934383 12.401575c4.6499834 -0.72771645 9.255892 -1.8225374 13.740158 -3.2519684" fill-rule="evenodd"/><path stroke="#000000" stroke-width="1.0" stroke-linejoin="round" stroke-linecap="butt" d="m-18.934383 12.401575c4.6499834 -0.72771645 9.255892 -1.8225374 13.740158 -3.2519684" fill-rule="evenodd"/><path fill="#000000" fill-opacity="0.0" d="m-18.750656 13.700788c5.3989735 -0.7525196 11.091455 -1.0924835 15.968504 -3.5275593" fill-rule="evenodd"/><path stroke="#000000" stroke-width="1.0" stroke-linejoin="round" stroke-linecap="butt" d="m-18.750656 13.700788c5.3989735 -0.7525196 11.091455 -1.0924835 15.968504 -3.5275593" fill-rule="evenodd"/><path fill="#000000" fill-opacity="0.0" d="m-18.286089 14.629921c5.4698114 0 11.126256 -0.7270508 16.154856 -2.8792648" fill-rule="evenodd"/><path stroke="#000000" stroke-width="1.0" stroke-linejoin="round" stroke-linecap="butt" d="m-18.286089 14.629921c5.4698114 0 11.126256 -0.7270508 16.154856 -2.8792648" fill-rule="evenodd"/><path fill="#000000" fill-opacity="0.0" d="m-17.170603 16.485565c4.9496365 -0.15806389 10.024317 -0.9255581 14.574802 -2.8792658" fill-rule="evenodd"/><path stroke="#000000" stroke-width="1.0" stroke-linejoin="round" stroke-linecap="butt" d="m-17.170603 16.485565c4.9496365 -0.15806389 10.024317 -0.9255581 14.574802 -2.8792658" fill-rule="evenodd"/><path fill="#000000" fill-opacity="0.0" d="m-16.335958 17.879265c4.623664 -1.0452766 9.496621 -1.1919727 13.92651 -2.8792648" fill-rule="evenodd"/><path stroke="#000000" stroke-width="1.0" stroke-linejoin="round" stroke-linecap="butt" d="m-16.335958 17.879265c4.623664 -1.0452766 9.496621 -1.1919727 13.92651 -2.8792648" fill-rule="evenodd"/><path fill="#000000" fill-opacity="0.0" d="m-14.572179 19.178478c3.5657845 -0.344553 7.110595 -0.9865227 10.585302 -1.8582687" fill-rule="evenodd"/><path stroke="#000000" stroke-width="1.0" stroke-linejoin="round" stroke-linecap="butt" d="m-14.572179 19.178478c3.5657845 -0.344553 7.110595 -0.9865227 10.585302 -1.8582687" fill-rule="evenodd"/><path fill="#000000" fill-opacity="0.0" d="m-12.343832 20.385826c2.4765635 0.07427597 4.9865 0.14466858 7.4278216 -0.2782154" fill-rule="evenodd"/><path stroke="#000000" stroke-width="1.0" stroke-linejoin="round" stroke-linecap="butt" d="m-12.343832 20.385826c2.4765635 0.07427597 4.9865 0.14466858 7.4278216 -0.2782154" fill-rule="evenodd"/></g></svg>